<svg xmlns="http://www.w3.org/2000/svg" xmlns:xlink="http://www.w3.org/1999/xlink" width="1080" zoomAndPan="magnify" viewBox="0 0 810 1439.999935" height="1920" preserveAspectRatio="xMidYMid meet" version="1.0"><defs><g/><clipPath id="34ca704bb2"><rect x="0" width="589" y="0" height="173"/></clipPath><clipPath id="300920b50a"><path d="M 283.730469 662 L 349.730469 662 L 349.730469 708.800781 L 283.730469 708.800781 Z M 283.730469 662 " clip-rule="nonzero"/></clipPath><clipPath id="791840f212"><path d="M 283.730469 647 L 349.730469 647 L 349.730469 695 L 283.730469 695 Z M 283.730469 647 " clip-rule="nonzero"/></clipPath><clipPath id="85c666b117"><path d="M 283.730469 633.050781 L 349.730469 633.050781 L 349.730469 680 L 283.730469 680 Z M 283.730469 633.050781 " clip-rule="nonzero"/></clipPath><clipPath id="801d78e382"><path d="M 342.746094 733.652344 L 408.746094 733.652344 L 408.746094 780 L 342.746094 780 Z M 342.746094 733.652344 " clip-rule="nonzero"/></clipPath><clipPath id="ce41a75f06"><path d="M 342.746094 748 L 408.746094 748 L 408.746094 795 L 342.746094 795 Z M 342.746094 748 " clip-rule="nonzero"/></clipPath><clipPath id="3f5b1d993c"><path d="M 342.746094 762 L 408.746094 762 L 408.746094 809.402344 L 342.746094 809.402344 Z M 342.746094 762 " clip-rule="nonzero"/></clipPath></defs><g transform="matrix(1, 0, 0, 1, 108, 630)"><g clip-path="url(#34ca704bb2)"><g fill="#e2ff57" fill-opacity="1"><g transform="translate(0.343336, 78.303891)"><g><path d="M 6.90625 -36.65625 C 6.90625 -41.144531 8.023438 -45.316406 10.265625 -49.171875 C 12.503906 -53.023438 15.535156 -56.070312 19.359375 -58.3125 C 23.191406 -60.5625 27.378906 -61.6875 31.921875 -61.6875 C 36.460938 -61.6875 40.644531 -60.5625 44.46875 -58.3125 C 48.289062 -56.070312 51.320312 -53.023438 53.5625 -49.171875 C 55.8125 -45.316406 56.9375 -41.144531 56.9375 -36.65625 L 56.9375 -23.375 C 56.9375 -18.894531 55.8125 -14.726562 53.5625 -10.875 C 51.320312 -7.019531 48.289062 -3.96875 44.46875 -1.71875 C 40.644531 0.519531 36.460938 1.640625 31.921875 1.640625 C 27.378906 1.640625 23.191406 0.519531 19.359375 -1.71875 C 15.535156 -3.96875 12.503906 -7.019531 10.265625 -10.875 C 8.023438 -14.726562 6.90625 -18.894531 6.90625 -23.375 Z M 22.609375 -23.375 C 22.609375 -20.613281 23.46875 -18.253906 25.1875 -16.296875 C 26.914062 -14.347656 29.160156 -13.375 31.921875 -13.375 C 34.617188 -13.375 36.832031 -14.347656 38.5625 -16.296875 C 40.289062 -18.253906 41.15625 -20.613281 41.15625 -23.375 L 41.15625 -36.75 C 41.15625 -39.5625 40.289062 -41.914062 38.5625 -43.8125 C 36.832031 -45.71875 34.617188 -46.671875 31.921875 -46.671875 C 29.160156 -46.671875 26.914062 -45.71875 25.1875 -43.8125 C 23.46875 -41.914062 22.609375 -39.5625 22.609375 -36.75 Z M 22.609375 -23.375 "/></g></g></g><g fill="#e2ff57" fill-opacity="1"><g transform="translate(59.173776, 78.303891)"><g><path d="M 8.546875 -0.09375 L 8.546875 -60.125 L 11.90625 -60.125 L 53.828125 -19.328125 L 53.828125 -60.125 L 57.015625 -60.125 L 57.015625 -0.09375 Z M 8.546875 -0.09375 "/></g></g></g><g fill="#e2ff57" fill-opacity="1"><g transform="translate(118.004217, 78.303891)"><g><path d="M 56.671875 -22.6875 C 56.734375 -15.15625 54.578125 -9.273438 50.203125 -5.046875 C 45.835938 -0.816406 39.828125 1.296875 32.171875 1.296875 C 27.628906 1.296875 23.445312 0.257812 19.625 -1.8125 C 15.800781 -3.882812 12.765625 -6.816406 10.515625 -10.609375 C 8.273438 -14.398438 7.15625 -18.769531 7.15625 -23.71875 L 7.15625 -36.3125 C 7.15625 -41.207031 8.234375 -45.550781 10.390625 -49.34375 C 12.546875 -53.132812 15.507812 -56.078125 19.28125 -58.171875 C 23.050781 -60.273438 27.265625 -61.328125 31.921875 -61.328125 C 39.566406 -61.328125 45.5625 -59.242188 49.90625 -55.078125 C 54.25 -50.910156 56.445312 -45.03125 56.5 -37.4375 L 40.96875 -37.4375 C 40.914062 -40.375 40.125 -42.644531 38.59375 -44.25 C 37.070312 -45.863281 34.847656 -46.671875 31.921875 -46.671875 C 29.273438 -46.671875 27.085938 -45.835938 25.359375 -44.171875 C 23.640625 -42.503906 22.78125 -40.144531 22.78125 -37.09375 L 22.78125 -23.03125 C 22.78125 -19.976562 23.679688 -17.601562 25.484375 -15.90625 C 27.296875 -14.21875 29.523438 -13.375 32.171875 -13.375 C 38.210938 -13.375 41.234375 -16.476562 41.234375 -22.6875 Z M 56.671875 -22.6875 "/></g></g></g><g fill="#e2ff57" fill-opacity="1"><g transform="translate(176.834658, 78.303891)"><g/></g></g><g fill="#e2ff57" fill-opacity="1"><g transform="translate(235.665098, 78.303891)"><g><path d="M 8.796875 0 L 8.796875 -60.046875 L 11.984375 -60.046875 L 11.984375 -43.046875 C 17.910156 -43.046875 23.519531 -41.910156 28.8125 -39.640625 C 34.101562 -37.367188 38.734375 -34.203125 42.703125 -30.140625 C 46.671875 -26.085938 49.71875 -21.445312 51.84375 -16.21875 L 51.84375 -60.046875 L 55.03125 -60.046875 L 55.03125 0 L 51.84375 0 C 51.84375 -7.1875 50.0625 -13.84375 46.5 -19.96875 C 42.9375 -26.09375 38.09375 -30.9375 31.96875 -34.5 C 25.84375 -38.070312 19.179688 -39.859375 11.984375 -39.859375 L 11.984375 0 Z M 8.796875 0 "/></g></g></g><g fill="#e2ff57" fill-opacity="1"><g transform="translate(294.495539, 78.303891)"><g><path d="M 12.515625 -44.859375 L 12.515625 -60.046875 L 51.328125 -60.046875 L 51.328125 -44.859375 L 33.46875 -44.859375 L 33.46875 -15.1875 L 51.328125 -15.1875 L 51.328125 0 L 12.515625 0 L 12.515625 -15.1875 L 30.359375 -15.1875 L 30.359375 -44.859375 Z M 12.515625 -44.859375 "/></g></g></g><g fill="#e2ff57" fill-opacity="1"><g transform="translate(353.32598, 78.303891)"><g><path d="M 8.546875 -0.09375 L 8.546875 -60.125 L 11.90625 -60.125 L 53.828125 -19.328125 L 53.828125 -60.125 L 57.015625 -60.125 L 57.015625 -0.09375 Z M 8.546875 -0.09375 "/></g></g></g><g fill="#e2ff57" fill-opacity="1"><g transform="translate(412.156421, 78.303891)"><g><path d="M 10.359375 -60.046875 L 54.09375 -60.046875 L 54.09375 -44.859375 L 26.046875 -44.859375 L 26.046875 -37.265625 L 49.34375 -37.265625 L 49.34375 -22.859375 L 26.046875 -22.859375 L 26.046875 -15.1875 L 54.09375 -15.1875 L 54.09375 0 L 10.359375 0 Z M 10.359375 -60.046875 "/></g></g></g><g fill="#e2ff57" fill-opacity="1"><g transform="translate(470.986861, 78.303891)"><g><path d="M 56.765625 0 L 10.609375 0 L 10.609375 -60.046875 L 33.984375 -60.046875 C 38.992188 -60.046875 43.078125 -59.148438 46.234375 -57.359375 C 49.335938 -55.640625 51.753906 -53.285156 53.484375 -50.296875 C 55.210938 -47.304688 56.078125 -44 56.078125 -40.375 C 56.078125 -35.882812 54.695312 -31.867188 51.9375 -28.328125 C 49.175781 -24.796875 45.695312 -22.457031 41.5 -21.3125 Z M 16.046875 -56.84375 L 39.515625 -24.0625 C 43.367188 -24.875 46.554688 -26.800781 49.078125 -29.84375 C 51.609375 -32.894531 52.875 -36.40625 52.875 -40.375 C 52.875 -43.53125 52.097656 -46.398438 50.546875 -48.984375 C 48.992188 -51.578125 46.8125 -53.566406 44 -54.953125 C 41.46875 -56.210938 38.160156 -56.84375 34.078125 -56.84375 Z M 13.796875 -54.78125 L 13.796875 -23.8125 L 35.96875 -23.8125 Z M 13.796875 -3.1875 L 50.71875 -3.1875 L 38.125 -20.703125 L 35.453125 -20.625 L 13.796875 -20.625 Z M 13.796875 -3.1875 "/></g></g></g><g fill="#e2ff57" fill-opacity="1"><g transform="translate(529.817302, 78.303891)"><g><path d="M 32.34375 1.546875 C 24.007812 1.546875 17.582031 -0.421875 13.0625 -4.359375 C 8.550781 -8.296875 6.328125 -14.203125 6.390625 -22.078125 L 20.4375 -22.078125 C 20.382812 -18.804688 21.363281 -16.304688 23.375 -14.578125 C 25.382812 -12.847656 28.203125 -11.984375 31.828125 -11.984375 C 34.816406 -11.984375 37.175781 -12.472656 38.90625 -13.453125 C 40.632812 -14.429688 41.5 -15.925781 41.5 -17.9375 C 41.5 -19.601562 40.617188 -20.8125 38.859375 -21.5625 C 37.109375 -22.3125 35.367188 -22.84375 33.640625 -23.15625 C 31.921875 -23.476562 30.859375 -23.664062 30.453125 -23.71875 C 26.023438 -24.582031 22.195312 -25.628906 18.96875 -26.859375 C 15.75 -28.097656 13.046875 -29.984375 10.859375 -32.515625 C 8.679688 -35.046875 7.59375 -38.382812 7.59375 -42.53125 C 7.59375 -46.664062 8.679688 -50.1875 10.859375 -53.09375 C 13.046875 -56 15.96875 -58.171875 19.625 -59.609375 C 23.28125 -61.046875 27.265625 -61.765625 31.578125 -61.765625 C 36.804688 -61.765625 41.332031 -60.785156 45.15625 -58.828125 C 48.976562 -56.878906 51.984375 -53.921875 54.171875 -49.953125 C 55.265625 -48.046875 55.925781 -46.21875 56.15625 -44.46875 C 56.382812 -42.71875 56.5 -41.007812 56.5 -39.34375 L 42.4375 -39.34375 C 42.4375 -42.445312 41.601562 -44.726562 39.9375 -46.1875 C 38.269531 -47.65625 35.679688 -48.390625 32.171875 -48.390625 C 29.359375 -48.390625 27.175781 -47.898438 25.625 -46.921875 C 24.070312 -45.953125 23.296875 -44.628906 23.296875 -42.953125 C 23.296875 -41.117188 24.328125 -39.769531 26.390625 -38.90625 C 28.460938 -38.039062 31.082031 -37.265625 34.25 -36.578125 C 39.425781 -35.546875 43.460938 -34.550781 46.359375 -33.59375 C 49.265625 -32.644531 51.78125 -30.960938 53.90625 -28.546875 C 56.039062 -26.140625 57.109375 -22.75 57.109375 -18.375 C 57.109375 -14.226562 55.957031 -10.660156 53.65625 -7.671875 C 51.351562 -4.679688 48.316406 -2.394531 44.546875 -0.8125 C 40.785156 0.757812 36.71875 1.546875 32.34375 1.546875 Z M 32.34375 1.546875 "/></g></g></g><g fill="#e2ff57" fill-opacity="1"><g transform="translate(176.836386, 163.554636)"><g><path d="M 58.140625 -15.265625 L 58.140625 0 L 12.421875 0 L 12.421875 -60.046875 L 15.609375 -60.046875 L 15.609375 -15.265625 Z M 58.140625 -15.265625 "/></g></g></g><g fill="#e2ff57" fill-opacity="1"><g transform="translate(235.666827, 163.554636)"><g/></g></g><g fill="#e2ff57" fill-opacity="1"><g transform="translate(294.497268, 163.554636)"><g><path d="M 36.140625 -60.046875 C 39.941406 -60.046875 42.960938 -59.46875 45.203125 -58.3125 C 47.898438 -56.9375 49.984375 -55.039062 51.453125 -52.625 C 52.921875 -50.207031 53.65625 -47.503906 53.65625 -44.515625 C 53.65625 -41.691406 52.90625 -39.085938 51.40625 -36.703125 C 49.914062 -34.316406 47.878906 -32.4375 45.296875 -31.0625 C 48.398438 -29.96875 51.015625 -28.066406 53.140625 -25.359375 C 55.265625 -22.660156 56.328125 -19.613281 56.328125 -16.21875 C 56.328125 -13.226562 55.566406 -10.484375 54.046875 -7.984375 C 52.523438 -5.484375 50.5 -3.515625 47.96875 -2.078125 C 46.695312 -1.378906 45.285156 -0.859375 43.734375 -0.515625 C 42.179688 -0.171875 40.113281 0 37.53125 0 L 10.953125 0 L 10.953125 -60.046875 Z M 36.140625 -60.046875 "/></g></g></g><g fill="#e2ff57" fill-opacity="1"><g transform="translate(353.327708, 163.554636)"><g><path d="M 32.34375 1.546875 C 24.007812 1.546875 17.582031 -0.421875 13.0625 -4.359375 C 8.550781 -8.296875 6.328125 -14.203125 6.390625 -22.078125 L 20.4375 -22.078125 C 20.382812 -18.804688 21.363281 -16.304688 23.375 -14.578125 C 25.382812 -12.847656 28.203125 -11.984375 31.828125 -11.984375 C 34.816406 -11.984375 37.175781 -12.472656 38.90625 -13.453125 C 40.632812 -14.429688 41.5 -15.925781 41.5 -17.9375 C 41.5 -19.601562 40.617188 -20.8125 38.859375 -21.5625 C 37.109375 -22.3125 35.367188 -22.84375 33.640625 -23.15625 C 31.921875 -23.476562 30.859375 -23.664062 30.453125 -23.71875 C 26.023438 -24.582031 22.195312 -25.628906 18.96875 -26.859375 C 15.75 -28.097656 13.046875 -29.984375 10.859375 -32.515625 C 8.679688 -35.046875 7.59375 -38.382812 7.59375 -42.53125 C 7.59375 -46.664062 8.679688 -50.1875 10.859375 -53.09375 C 13.046875 -56 15.96875 -58.171875 19.625 -59.609375 C 23.28125 -61.046875 27.265625 -61.765625 31.578125 -61.765625 C 36.804688 -61.765625 41.332031 -60.785156 45.15625 -58.828125 C 48.976562 -56.878906 51.984375 -53.921875 54.171875 -49.953125 C 55.265625 -48.046875 55.925781 -46.21875 56.15625 -44.46875 C 56.382812 -42.71875 56.5 -41.007812 56.5 -39.34375 L 42.4375 -39.34375 C 42.4375 -42.445312 41.601562 -44.726562 39.9375 -46.1875 C 38.269531 -47.65625 35.679688 -48.390625 32.171875 -48.390625 C 29.359375 -48.390625 27.175781 -47.898438 25.625 -46.921875 C 24.070312 -45.953125 23.296875 -44.628906 23.296875 -42.953125 C 23.296875 -41.117188 24.328125 -39.769531 26.390625 -38.90625 C 28.460938 -38.039062 31.082031 -37.265625 34.25 -36.578125 C 39.425781 -35.546875 43.460938 -34.550781 46.359375 -33.59375 C 49.265625 -32.644531 51.78125 -30.960938 53.90625 -28.546875 C 56.039062 -26.140625 57.109375 -22.75 57.109375 -18.375 C 57.109375 -14.226562 55.957031 -10.660156 53.65625 -7.671875 C 51.351562 -4.679688 48.316406 -2.394531 44.546875 -0.8125 C 40.785156 0.757812 36.71875 1.546875 32.34375 1.546875 Z M 32.34375 1.546875 "/></g></g></g></g></g><g clip-path="url(#300920b50a)"><path fill="#ffffff" d="M 283.8125 708.75 L 349.984375 708.800781 L 316.964844 662.847656 Z M 283.8125 708.75 " fill-opacity="1" fill-rule="nonzero"/></g><g clip-path="url(#791840f212)"><path fill="#ffffff" d="M 284.78125 693.300781 L 316.964844 648.738281 L 348.988281 693.324219 L 284.78125 693.300781 M 283.734375 693.300781 C 283.734375 693.457031 283.757812 693.613281 283.835938 693.773438 C 284.019531 694.113281 284.386719 694.347656 284.78125 694.347656 L 348.988281 694.375 C 349.382812 694.375 349.75 694.164062 349.933594 693.796875 C 350.011719 693.640625 350.039062 693.484375 350.039062 693.324219 C 350.039062 693.117188 349.960938 692.90625 349.828125 692.722656 L 317.804688 648.132812 C 317.59375 647.871094 317.277344 647.6875 316.964844 647.6875 C 316.625 647.6875 316.308594 647.847656 316.125 648.132812 L 283.941406 692.671875 C 283.8125 692.855469 283.734375 693.0625 283.734375 693.300781 Z M 283.734375 693.300781 " fill-opacity="1" fill-rule="nonzero"/></g><g clip-path="url(#85c666b117)"><path fill="#ffffff" d="M 284.835938 678.507812 L 317.015625 633.972656 L 349.042969 678.558594 L 284.835938 678.507812 M 283.785156 678.507812 C 283.785156 678.664062 283.8125 678.820312 283.890625 678.980469 C 284.074219 679.320312 284.441406 679.554688 284.835938 679.554688 L 349.042969 679.609375 C 349.433594 679.609375 349.800781 679.398438 349.984375 679.03125 C 350.066406 678.875 350.089844 678.71875 350.089844 678.558594 C 350.089844 678.351562 350.011719 678.140625 349.882812 677.957031 L 317.855469 633.367188 C 317.644531 633.105469 317.332031 632.921875 317.015625 632.921875 C 316.675781 632.921875 316.359375 633.078125 316.175781 633.367188 L 283.996094 677.878906 C 283.863281 678.0625 283.785156 678.296875 283.785156 678.507812 Z M 283.785156 678.507812 " fill-opacity="1" fill-rule="nonzero"/></g><g clip-path="url(#801d78e382)"><path fill="#ffffff" d="M 408.664062 733.703125 L 342.488281 733.652344 L 375.511719 779.601562 Z M 408.664062 733.703125 " fill-opacity="1" fill-rule="nonzero"/></g><g clip-path="url(#ce41a75f06)"><path fill="#ffffff" d="M 407.691406 749.152344 L 375.511719 793.714844 L 343.484375 749.125 L 407.691406 749.152344 M 408.742188 749.152344 C 408.742188 748.996094 408.714844 748.835938 408.636719 748.679688 C 408.453125 748.339844 408.085938 748.101562 407.691406 748.101562 L 343.484375 748.078125 C 343.089844 748.078125 342.722656 748.285156 342.539062 748.652344 C 342.460938 748.8125 342.4375 748.96875 342.4375 749.125 C 342.4375 749.335938 342.515625 749.546875 342.644531 749.730469 L 374.671875 794.316406 C 374.878906 794.578125 375.195312 794.761719 375.511719 794.761719 C 375.851562 794.761719 376.164062 794.605469 376.347656 794.316406 L 408.53125 749.78125 C 408.664062 749.597656 408.742188 749.386719 408.742188 749.152344 Z M 408.742188 749.152344 " fill-opacity="1" fill-rule="nonzero"/></g><g clip-path="url(#3f5b1d993c)"><path fill="#ffffff" d="M 407.640625 763.945312 L 375.457031 808.480469 L 343.433594 763.890625 L 407.640625 763.945312 M 408.6875 763.945312 C 408.6875 763.789062 408.664062 763.628906 408.585938 763.472656 C 408.402344 763.132812 408.035156 762.894531 407.640625 762.894531 L 343.433594 762.84375 C 343.039062 762.84375 342.671875 763.054688 342.488281 763.421875 C 342.410156 763.578125 342.382812 763.734375 342.382812 763.890625 C 342.382812 764.101562 342.460938 764.3125 342.59375 764.496094 L 374.617188 809.082031 C 374.828125 809.347656 375.144531 809.53125 375.457031 809.53125 C 375.796875 809.53125 376.113281 809.371094 376.296875 809.082031 L 408.480469 764.574219 C 408.609375 764.390625 408.6875 764.15625 408.6875 763.945312 Z M 408.6875 763.945312 " fill-opacity="1" fill-rule="nonzero"/></g></svg>